<svg width="56.000000" height="56.000000" viewBox="0 0 56 56" fill="none" xmlns="http://www.w3.org/2000/svg" xmlns:xlink="http://www.w3.org/1999/xlink">
	<desc>
			Created with Pixso.
	</desc>
	<g clip-path="url(#clip416_3543)">
		<path d="M34.4004 8.80957L36.4648 5.11475C36.4922 5.06689 36.5088 5.01611 36.5146 4.96143C36.5273 4.84863 36.498 4.74756 36.4277 4.6582C36.3125 4.51221 36.165 4.46484 35.9863 4.51611C35.876 4.54736 35.793 4.61279 35.7373 4.7124L33.6494 8.44873C29.8828 6.81006 26.1162 6.81006 22.3496 8.44873L20.2617 4.7124C20.2061 4.61279 20.123 4.54736 20.0127 4.51611C19.9023 4.48486 19.7959 4.49658 19.6953 4.55127C19.5957 4.60693 19.5293 4.68945 19.498 4.79932C19.4658 4.90869 19.4775 5.01318 19.5332 5.11279L21.5986 8.80762C17.25 10.9277 15.0312 14.396 14.9414 19.2129L41.0547 19.2129C40.9648 14.3965 38.7461 10.9277 34.3975 8.80762L34.4004 8.80957ZM21.9736 14.4771C21.4883 14.4771 21.1533 14.2539 20.9668 13.8081C20.6289 12.9951 20.8936 12.5034 21.7617 12.3335C22.5449 12.1792 22.9756 12.4971 23.0547 13.2871C23.1338 14.0771 22.7744 14.4736 21.9766 14.4761L21.9736 14.4771ZM34.0244 14.4771C33.5391 14.4771 33.2041 14.2539 33.0176 13.8081C32.6982 13.0464 32.9395 12.5576 33.7412 12.3433C34.542 12.1284 34.9971 12.4302 35.1064 13.2485C35.2148 14.0669 34.8545 14.4761 34.0244 14.4761L34.0244 14.4771ZM14.9443 39.0093C14.9443 41.1021 15.9961 42.1465 18.1006 42.1421L20.1963 42.1421L20.1963 48.5459C20.1963 50.4863 21.1719 51.4565 23.123 51.4565C25.0742 51.4565 26.0498 50.4863 26.0498 48.5459L26.0498 42.1396L29.9512 42.1396L29.9512 48.543C29.9209 50.5142 30.8965 51.5 32.8789 51.5C34.8604 51.5 35.8359 50.5142 35.8057 48.543L35.8057 42.1396L37.8994 42.1396C40.0049 42.144 41.0566 41.0996 41.0566 39.0063L41.0566 20.2393L14.9443 20.2393L14.9443 39.0093ZM10.9268 19.7417C8.97949 19.7402 8.00391 20.708 8 22.645L8 34.7427C7.96973 36.7139 8.94531 37.6997 10.9268 37.6997C12.9092 37.6997 13.8848 36.7139 13.8535 34.7427L13.8535 22.645C13.8496 20.7085 12.873 19.7407 10.9268 19.7417ZM45.0732 19.7417C43.126 19.7402 42.1514 20.708 42.1475 22.645L42.1475 34.7427C42.1475 36.6831 43.123 37.6533 45.0732 37.6533C47.0244 37.6533 48 36.6831 48 34.7427L48 22.645C47.9961 20.708 47.0205 19.7402 45.0732 19.7417Z" fill-rule="evenodd" fill="#3DDC84"/>
	</g>
	<defs>
		<clipPath id="clip416_3543">
			<rect width="56.000092" height="56.000000" fill="white"/>
		</clipPath>
	</defs>
</svg>
