<svg width="56.000000" height="56.000000" viewBox="0 0 56 56" fill="none" xmlns="http://www.w3.org/2000/svg" xmlns:xlink="http://www.w3.org/1999/xlink">
	<desc>
			Created with Pixso.
	</desc>
	<g clip-path="url(#clip416_3551)">
		<path d="M30.4189 19.9243L30.4189 19.5288L29.1895 19.6133C28.8408 19.6353 28.5791 19.7095 28.4033 19.834C28.2275 19.9604 28.1396 20.1348 28.1396 20.3584C28.1396 20.5757 28.2266 20.749 28.4014 20.8774C28.5752 21.0068 28.8086 21.0708 29.0996 21.0708C29.2861 21.0708 29.4609 21.0415 29.6221 20.9849C29.7822 20.9282 29.9238 20.8486 30.041 20.7466C30.1592 20.646 30.252 20.5259 30.3184 20.3857C30.3848 20.2461 30.4189 20.0923 30.4189 19.9243ZM28 4C14.6074 4 4 14.6074 4 28C4 41.3936 14.6074 52 28 52C41.3926 52 52 41.3936 52 28C52 14.6074 41.3936 4 28 4ZM32.6592 18.2256C32.7725 17.9072 32.9316 17.6343 33.1387 17.4077C33.3457 17.1812 33.5947 17.0063 33.8857 16.8838C34.1777 16.7612 34.5029 16.6997 34.8604 16.6997C35.1826 16.6997 35.4736 16.7485 35.7334 16.8442C35.9932 16.9404 36.2158 17.0698 36.4014 17.2329C36.5879 17.396 36.7363 17.5859 36.8447 17.8032C36.9531 18.0205 37.0186 18.251 37.04 18.4927L36.0771 18.4927C36.0527 18.3594 36.0088 18.2344 35.9463 18.1201C35.8838 18.0054 35.8018 17.9062 35.6992 17.8218C35.5967 17.7373 35.4766 17.6714 35.3389 17.624C35.2002 17.5752 35.0449 17.5522 34.8701 17.5522C34.666 17.5522 34.4795 17.5938 34.3145 17.6758C34.1475 17.7583 34.0049 17.875 33.8877 18.0254C33.7695 18.1758 33.6777 18.3594 33.6133 18.5747C33.5469 18.791 33.5146 19.0303 33.5146 19.2939C33.5146 19.5669 33.5469 19.812 33.6133 20.0273C33.6777 20.2437 33.7705 20.4253 33.8906 20.5742C34.0098 20.7236 34.1543 20.8384 34.3223 20.917C34.4902 20.9956 34.6748 21.0361 34.876 21.0361C35.2061 21.0361 35.4736 20.9585 35.6826 20.8037C35.8906 20.6484 36.0244 20.4219 36.0869 20.1235L37.0518 20.1235C37.0244 20.3872 36.9512 20.6274 36.833 20.8452C36.7148 21.0625 36.5625 21.2476 36.375 21.4014C36.1865 21.5552 35.9658 21.6743 35.7109 21.7578C35.457 21.8408 35.1768 21.8838 34.873 21.8838C34.5117 21.8838 34.1865 21.8237 33.8945 21.7046C33.6025 21.5854 33.3516 21.4131 33.1436 21.1899C32.9355 20.9663 32.7744 20.6948 32.6611 20.3745C32.5479 20.0542 32.4912 19.6943 32.4912 19.293C32.4893 18.9009 32.5459 18.5444 32.6592 18.2256ZM18.9492 16.7656L19.9141 16.7656L19.9141 17.6226C19.9727 17.4805 20.0693 17.3521 20.1641 17.2412C20.2588 17.1289 20.3672 17.0342 20.4922 16.9541C20.6162 16.8745 20.7539 16.8145 20.9014 16.7725C21.0508 16.731 21.208 16.71 21.3721 16.71C21.7266 16.71 22.0264 16.7944 22.2686 16.9634C22.5127 17.1323 22.6865 17.375 22.7881 17.6924C22.8525 17.5396 22.9629 17.4028 23.0684 17.2827C23.1738 17.1626 23.2949 17.0581 23.4316 16.9727C23.5674 16.8872 23.7178 16.8223 23.8809 16.7773C24.0439 16.7319 24.2158 16.71 24.3955 16.71C24.6445 16.71 24.8701 16.7495 25.0742 16.8291C25.2773 16.9092 25.4512 17.02 25.5957 17.1646C25.7402 17.3091 25.8506 17.4854 25.9287 17.6909C26.0059 17.897 26.0449 18.126 26.0449 18.3779L26.0449 21.8257L25.0391 21.8257L25.0391 18.6196C25.0391 18.2876 24.9531 18.0298 24.7822 17.8481C24.6123 17.6665 24.3682 17.5752 24.0518 17.5752C23.8965 17.5752 23.7539 17.603 23.624 17.6572C23.4961 17.7119 23.3838 17.7881 23.291 17.8862C23.1973 17.9834 23.125 18.1016 23.0732 18.2383C23.0195 18.3745 22.9932 18.5239 22.9932 18.6855L22.9932 21.8257L22.001 21.8257L22.001 18.5366C22.001 18.3906 21.9775 18.2588 21.9326 18.1411C21.8877 18.0229 21.8232 17.9224 21.7393 17.8379C21.6562 17.7534 21.5527 17.6899 21.4336 17.6445C21.3135 17.5996 21.1797 17.5767 21.0303 17.5767C20.875 17.5767 20.7314 17.6055 20.5986 17.6631C20.4668 17.7212 20.3535 17.8008 20.2588 17.9028C20.1641 18.0054 20.0898 18.126 20.0381 18.2656C19.9873 18.4048 19.9033 18.5571 19.9033 18.7217L19.9033 21.8247L18.9492 21.8247L18.9492 16.7656ZM21.1387 40.9844C16.7148 40.9844 13.9404 37.9102 13.9404 33.0034C13.9404 28.0972 16.7148 25.0122 21.1387 25.0122C25.5625 25.0122 28.3271 28.0972 28.3271 33.0034C28.3271 37.9087 25.5625 40.9844 21.1387 40.9844ZM29.3301 21.813C29.167 21.855 29 21.8755 28.8291 21.8755C28.5771 21.8755 28.3467 21.8398 28.1377 21.7681C27.9268 21.6963 27.748 21.5957 27.5977 21.4648C27.4473 21.3345 27.3291 21.1772 27.2461 20.9922C27.1611 20.8071 27.1201 20.6011 27.1201 20.3745C27.1201 19.9302 27.2852 19.583 27.6162 19.3335C27.9473 19.0835 28.4258 18.938 29.0537 18.8975L30.4189 18.8188L30.4189 18.4277C30.4189 18.1362 30.3262 17.9131 30.1406 17.7617C29.9561 17.6099 29.6943 17.5337 29.3555 17.5337C29.2188 17.5337 29.0908 17.5513 28.9727 17.5845C28.8545 17.6191 28.751 17.668 28.6602 17.7314C28.5703 17.7949 28.4951 17.8716 28.4375 17.9604C28.3779 18.0483 28.3379 18.1479 28.3154 18.2563L27.3701 18.2563C27.375 18.0332 27.4307 17.8262 27.5352 17.6367C27.6387 17.4468 27.7803 17.2827 27.96 17.1426C28.1387 17.0029 28.3486 16.894 28.5908 16.8164C28.834 16.7393 29.0977 16.6997 29.3838 16.6997C29.6914 16.6997 29.9697 16.7378 30.2197 16.8164C30.4697 16.895 30.6836 17.0049 30.8604 17.1499C31.0371 17.2944 31.1738 17.4678 31.2695 17.6714C31.3662 17.875 31.4141 18.1025 31.4141 18.3535L31.4141 21.8247L30.4512 21.8247L30.4512 20.9814C30.3789 21.1182 30.2646 21.2417 30.1553 21.3516C30.0439 21.4614 29.9199 21.5566 29.7822 21.6338C29.6436 21.7114 29.4932 21.7715 29.3301 21.813ZM35.6953 40.9844C32.3213 40.9844 30.0273 39.2168 29.8682 36.4424L32.0645 36.4424C32.2354 38.0278 33.7686 39.0781 35.8672 39.0781C37.8809 39.0781 39.3281 38.0278 39.3281 36.5928C39.3281 35.3506 38.4492 34.5996 36.4141 34.0859L34.4316 33.5933C31.582 32.8867 30.2871 31.5903 30.2871 29.4585C30.2871 26.834 32.5791 25.0122 35.8467 25.0122C39.0391 25.0122 41.2666 26.8447 41.3525 29.4795L39.1777 29.4795C39.0273 27.8936 37.7314 26.9185 35.8027 26.9185C33.8848 26.9185 32.5566 27.9038 32.5566 29.3291C32.5566 30.4531 33.3926 31.1182 35.4277 31.6318L37.0996 32.0493C40.2812 32.8208 41.5879 34.0747 41.5879 36.3242C41.5869 39.1948 39.3164 40.9844 35.6953 40.9844ZM21.1387 26.9819C18.1074 26.9819 16.2119 29.3071 16.2119 33.0024C16.2119 36.6875 18.1074 39.0122 21.1387 39.0122C24.1602 39.0122 26.0664 36.6875 26.0664 33.0024C26.0674 29.3071 24.1602 26.9819 21.1387 26.9819Z" fill-rule="evenodd" fill="#121212"/>
	</g>
	<defs>
		<clipPath id="clip416_3551">
			<rect width="56.000095" height="56.000000" fill="white"/>
		</clipPath>
	</defs>
</svg>
